# xmcd
#
# Track frame offsets: 
#        150
#        17266
#        33844
#        58326
#        71494
#        93904
#        105987
#        125139
#        145148
#        158344
#        172621
#
# Disc length: 2517 seconds
#
# Revision: 0
# Processed by: cddbd v1.5.2PL0 Copyright (c) Steve Scherf et al.
# Submitted via: ExactAudioCopy v1.3
#
DISCID=7c09d30b
DTITLE=Bob Lanza Blues Band - Kids, Dogs and Krazy Women
DYEAR=2018
DGENRE=Blues
TTITLE0=Kids, Dogs and Krazy Women
TTITLE1=Little Momma
TTITLE2=Not The Man I Used To Be
TTITLE3=Walking After Midnight
TTITLE4=Full Time Lover
TTITLE5=Hey Cotton
TTITLE6=Problems
TTITLE7=Every Side Of Lonesome
TTITLE8=Let Me In
TTITLE9=Hey Baby
TTITLE10=Raritan River Stomp
EXTD=
EXTT0=
EXTT1=
EXTT2=
EXTT3=
EXTT4=
EXTT5=
EXTT6=
EXTT7=
EXTT8=
EXTT9=
EXTT10=
PLAYORDER=
